<?xml version="1.0" encoding="utf-8"?>
<!-- Generator: Adobe Illustrator 30.5.1, SVG Export Plug-In . SVG Version: 9.03 Build 0)  -->
<svg version="1.0" id="Ebene_1" xmlns="http://www.w3.org/2000/svg" xmlns:xlink="http://www.w3.org/1999/xlink" x="0px" y="0px"
	 viewBox="0 0 1133.9 272" style="enable-background:new 0 0 1133.9 272;" xml:space="preserve">
<style type="text/css">
	.st0{fill:#FFFFFF;}
</style>
<g>
	<path class="st0" d="M152.5,235.4c5.7,0,10.1,1.5,13.4,4.6c3.3,3.1,4.9,7.1,4.9,11.9c0,4.8-1.6,8.8-4.9,11.9
		c-3.3,3.1-7.7,4.7-13.4,4.7h-10.9v-33H152.5z M152.5,264.9c4.5,0,8-1.2,10.6-3.6c2.5-2.4,3.8-5.5,3.8-9.3c0-3.8-1.3-6.9-3.8-9.4
		s-6.1-3.6-10.6-3.6h-7v26H152.5z"/>
	<path class="st0" d="M211.9,268.4h-24.1v-33h24.1v3.5h-20.2v11.2h18.7v3.5h-18.7v11.3h20.2V268.4z"/>
	<path class="st0" d="M248.2,237.2c2.2,1.6,3.6,3.8,4.2,6.6l-3.9,0.9c-0.4-2-1.3-3.6-2.9-4.8c-1.5-1.2-3.5-1.8-5.7-1.8
		c-2.2,0-4,0.6-5.4,1.7c-1.4,1.1-2.1,2.5-2.1,4.3c0,1.4,0.4,2.5,1.3,3.3c0.8,0.8,2.1,1.3,3.7,1.7l7.2,1.6c5.6,1.2,8.3,4,8.3,8.6
		c0,3-1.1,5.4-3.4,7.2c-2.2,1.8-5.2,2.7-8.9,2.7c-3.6,0-6.6-0.9-9.1-2.6c-2.5-1.8-3.9-4.2-4.3-7.2l4.1-0.8c0.4,2.3,1.4,4.1,3.2,5.4
		c1.7,1.3,3.9,1.9,6.5,1.9c2.5,0,4.5-0.6,5.9-1.7c1.4-1.1,2.1-2.6,2.1-4.5c0-1.5-0.4-2.6-1.3-3.4c-0.8-0.8-2.2-1.3-4.1-1.8l-7.4-1.6
		c-5.3-1.2-7.9-4-7.9-8.4c0-2.8,1.1-5.1,3.2-6.9c2.2-1.7,5-2.6,8.5-2.6C243.3,234.7,246,235.6,248.2,237.2z"/>
	<path class="st0" d="M269.8,268.4v-33h3.9v33H269.8z"/>
	<path class="st0" d="M324.3,250.3c0,0.4,0,1,0,1.7c0,4.9-1.6,8.9-4.7,12.2c-3.1,3.3-7.1,4.9-11.9,4.9s-8.9-1.7-12.2-5
		c-3.3-3.3-5-7.4-5-12.2c0-4.8,1.7-8.9,5-12.2c3.3-3.3,7.4-5,12.2-5c3.6,0,6.9,0.8,9.6,2.5c2.8,1.7,4.8,4,5.9,7l-3.5,1.2
		c-1.2-2.3-2.8-4.1-4.9-5.3c-2.1-1.2-4.5-1.8-7.2-1.8c-3.7,0-6.8,1.3-9.4,3.9c-2.5,2.6-3.8,5.8-3.8,9.6c0,3.8,1.3,7,3.9,9.6
		c2.6,2.6,5.7,3.9,9.5,3.9c3.5,0,6.3-1.1,8.7-3.3c2.3-2.2,3.7-4.9,4.1-8.3H306v-3.6H324.3z"/>
	<path class="st0" d="M370.1,268.4h-3.4l-21.6-26.2v26.2h-3.9v-33h3.4l21.6,26.5v-26.5h3.9V268.4z"/>
	<path class="st0" d="M410.9,272v-40.1h3.6V272H410.9z"/>
	<path class="st0" d="M466.3,235.4c5.7,0,10.1,1.5,13.4,4.6c3.3,3.1,4.9,7.1,4.9,11.9c0,4.8-1.6,8.8-4.9,11.9
		c-3.3,3.1-7.7,4.7-13.4,4.7h-10.9v-33H466.3z M466.2,264.9c4.5,0,8-1.2,10.6-3.6c2.5-2.4,3.8-5.5,3.8-9.3c0-3.8-1.3-6.9-3.8-9.4
		c-2.5-2.4-6.1-3.6-10.6-3.6h-7v26H466.2z"/>
	<path class="st0" d="M524.1,268.4l-12.6-14.2h-6.1v14.2h-3.9v-33h15.3c3.2,0,5.8,0.9,7.8,2.6c2,1.7,3,4,3,6.8s-1,5.1-3,6.9
		c-2,1.7-4.6,2.6-7.8,2.6h-0.6l12.8,14.2H524.1z M516.8,250.7c2.1,0,3.7-0.5,5-1.6c1.3-1.1,1.9-2.5,1.9-4.3c0-1.8-0.6-3.2-1.9-4.3
		c-1.3-1.1-2.9-1.6-5-1.6h-11.4v11.8H516.8z"/>
	<path class="st0" d="M571.2,254c0,4.5-1.3,8.1-3.8,10.9c-2.5,2.8-5.8,4.2-10,4.2c-4.2,0-7.5-1.4-10.1-4.2
		c-2.5-2.8-3.8-6.4-3.8-10.9v-18.6h3.9V254c0,3.4,0.9,6.2,2.7,8.2c1.8,2.1,4.2,3.1,7.3,3.1c3,0,5.3-1,7.2-3.1
		c1.8-2.1,2.7-4.8,2.7-8.2v-18.6h3.9V254z"/>
	<path class="st0" d="M612.4,263.2c2.1-1.5,3.6-3.5,4.5-6.2l3.7,0.9c-1,3.5-2.9,6.2-5.8,8.2c-2.8,2-6.1,3-10,3
		c-4.8,0-8.9-1.7-12.2-5c-3.3-3.3-5-7.4-5-12.2c0-4.8,1.7-8.9,5-12.2c3.3-3.3,7.4-5,12.2-5c3.8,0,7.1,1,9.9,3c2.8,2,4.8,4.6,5.8,8
		l-3.7,1.1c-0.8-2.6-2.3-4.7-4.4-6.2c-2.1-1.5-4.7-2.2-7.5-2.2c-3.7,0-6.8,1.3-9.4,3.9c-2.5,2.6-3.8,5.8-3.8,9.6
		c0,3.8,1.3,7,3.8,9.6c2.5,2.6,5.7,3.9,9.4,3.9C607.7,265.4,610.3,264.7,612.4,263.2z"/>
	<path class="st0" d="M659.8,268.4l-16.6-14.6h-1.8v14.6h-3.9v-33h3.9v14.9h1.5l16.2-14.9h4.9l-17.9,16.5l19,16.5H659.8z"/>
	<path class="st0" d="M702.8,272v-40.1h3.6V272H702.8z"/>
	<path class="st0" d="M758.3,235.4c5.7,0,10.1,1.5,13.4,4.6c3.3,3.1,4.9,7.1,4.9,11.9c0,4.8-1.6,8.8-4.9,11.9
		c-3.3,3.1-7.7,4.7-13.4,4.7h-10.9v-33H758.3z M758.2,264.9c4.5,0,8-1.2,10.6-3.6c2.5-2.4,3.8-5.5,3.8-9.3c0-3.8-1.3-6.9-3.8-9.4
		c-2.5-2.4-6.1-3.6-10.6-3.6h-7v26H758.2z"/>
	<path class="st0" d="M793.5,268.4v-33h3.9v33H793.5z"/>
	<path class="st0" d="M848,250.3c0,0.4,0,1,0,1.7c0,4.9-1.6,8.9-4.7,12.2c-3.1,3.3-7.1,4.9-11.9,4.9c-4.8,0-8.9-1.7-12.2-5
		c-3.3-3.3-5-7.4-5-12.2c0-4.8,1.7-8.9,5-12.2c3.3-3.3,7.4-5,12.2-5c3.6,0,6.9,0.8,9.6,2.5c2.8,1.7,4.8,4,5.9,7l-3.5,1.2
		c-1.2-2.3-2.8-4.1-4.9-5.3c-2.1-1.2-4.5-1.8-7.2-1.8c-3.7,0-6.8,1.3-9.4,3.9c-2.5,2.6-3.8,5.8-3.8,9.6c0,3.8,1.3,7,3.9,9.6
		c2.6,2.6,5.7,3.9,9.5,3.9c3.5,0,6.3-1.1,8.7-3.3c2.3-2.2,3.7-4.9,4.1-8.3h-14.6v-3.6H848z"/>
	<path class="st0" d="M864.9,268.4v-33h3.9v33H864.9z"/>
	<path class="st0" d="M900.4,238.9v29.5h-3.9v-29.5h-12.3v-3.5h28.5v3.5H900.4z"/>
	<path class="st0" d="M950.3,268.4l-3.7-8.4h-17.4l-3.7,8.4h-4.2l14.8-33h3.6l14.8,33H950.3z M937.9,240.2l-7.2,16.3H945
		L937.9,240.2z"/>
	<path class="st0" d="M992,268.4h-22.8v-33h3.9v29.5H992V268.4z"/>
</g>
<g>
	<g>
		<path class="st0" d="M110.2,118.5L110.2,118.5l-6.6-1.7c-0.8-0.4-1.5-0.8-1.5-0.8l0.5,0.5l-5.1-1.2l0,0c0,0,0,0,0,0
			c0-0.1-1.3,0.4-1.4,0.4c-0.5,0.1-1.1,0.4-1.6,0.4c-0.5,0-1-0.3-1.5-0.4c-0.1,0-1.3-0.4-1.4-0.4l-5.4,1.1l0.9-0.8
			c0,0-1.5,0.4-2.4,0.9l-5.7,1.9c0,0-2.8,1.6-3,1.8c-0.3,0.2-1.9,3.6-1.9,3.6l-0.4,2l2.8,3.3c0,0,3.3-1.6,4.1-2.6c0.9-1,0.9-1,0.9-1
			l-1.2,0.6l2.9-3.5c0,0,5,0.5,10.2,0.5c5.2,0.1,10.2-0.5,10.2-0.5l2.9,3.5l-1.2-0.6c0,0,0,0,0.9,1c0.9,1,4.1,2.6,4.1,2.6l2.7-3.7
			l0.7-2.7c0-1-0.1-2.3-0.3-2.4C112.9,120.1,110.6,118.8,110.2,118.5z"/>
		<path class="st0" d="M182.5,46.9c-8.8-14.7-21-26.2-36.7-34.5C130,4.1,111.7,0,90.8,0H24.4H11.2H0v195.6h11.2h13.2h66.4
			c20.9,0,39.2-4.1,54.9-12.4c15.7-8.3,28-19.8,36.7-34.5c8.8-14.7,13.1-31.7,13.1-50.9C195.6,78.6,191.2,61.7,182.5,46.9z
			 M140.4,95.5l0.8-2.6c0,0,5.6,5.9-2.7,12.7C138.5,105.6,143.3,100.5,140.4,95.5z M144.2,99.9c0,0,3.9-15.2,0.8-15.9
			c-1.9-0.5-3.8,1.4-4.9,3c-0.2,5.9-1.4,16-2.5,27.8c3.5-0.7,5.1-7.2,5.1-7.2c0.1,7.4-4.4,10.8-5.5,11.6c-0.5,5.6-0.9,11.6-1.2,17.6
			c-1,21.5-7.3,26.6-7.3,26.6c1.3-4,0.9-9.5,0.9-9.5c-1.6,13.8-13.2,21.8-13.2,21.8c3-2.7,3.3-7.1,3.3-7.1s-9.1,10.6-27.9,11.5
			c-18.8,0.9-25.9-14.5-25.9-14.5c1,4.8,2.6,6.7,2.6,6.7c-9.5-6.6-14.3-22.8-14.3-22.8c0,3.9,0.5,7.2,0.5,7.2
			c-5.8-10.8-7.4-27.5-8.4-41.8c-1.9-1-5.8-3.6-7.1-10.2c0,0,3,5.8,6.9,6.5c-0.2-2.5-0.3-4.8-0.5-7.1c-0.8-10.4,0.1-17.7,0.8-21.5
			c-1.5-0.7-4.1-2.7-6-3.6c-2.5-1.1-2.2,2.6-1.7,7.5c0.5,4.8-0.3,14.8-0.3,14.8s-1.1-6.2-1.2-12.9c-0.1-6.6-2.2-11.6,1.5-12.9
			c2.3-0.8,5.3,0.9,7.2,2.3c-0.3-2.4-0.3-6.8-0.3-6.8l0,0c0-0.7,0-1.4,0-2c0.2-5.3,1.1-11.7,3.3-21C51,38.3,55.6,33.6,59.8,30
			c4.2-3.6,13.2-11.7,29.1-14c15.9-2.3,24.9,4.1,33.5,10.5C131.1,33,134,38.8,134,38.8c9.4,13.3,8.2,38.1,8,42.2
			c1.3-0.9,3.2-1.7,4.7-0.5C148.9,82.5,149,86.2,144.2,99.9z M45.2,101.4c-7.6-7-1-13.3-1-13.3l0.9,3.1
			C41.6,94.6,45.2,101.4,45.2,101.4z"/>
		<path class="st0" d="M85.1,66.8c-0.1-0.1-0.2-0.1-0.2-0.1C85,66.7,85.1,66.7,85.1,66.8z"/>
		<path class="st0" d="M106.1,66.9c0,0-0.1,0-0.2,0.1C105.9,67,106,66.9,106.1,66.9z"/>
		<path class="st0" d="M138.6,89.5c-0.4-2.2-1.8-10.7-1.9-18.4c-0.1-8.9-2.8-10.6-2.8-10.6c0.6-10.8,2.1-19.7-13.9-32.7
			c-10.4-8.5-23.9-9.6-35.9-7.7c-4.9,0.2-12,2.6-17.5,5.8c-1.6,0.9-3,2.1-4.1,3.4c-2.9,3.3-4.4,7.5-5.4,11.6
			c-1,4.1-1.9,8.3-2.9,12.5c-1,3.8-1.8,7.7-2.3,11.6c-0.5,4-0.9,8-2,11.9c0,0.1-0.1,0.3-0.1,0.4l0,0c0,0,0,0,0,0
			c-0.3,1.1-0.7,2.2-1.1,3.3c-0.3,1.4-0.7,3.2-0.9,5.6c0.5,5.4,1.2,13.4,1.8,22.1c1.1,15.5,10.7,18.6,10.7,18.6c1.1-0.8,2-1.8,2.9-3
			l1.9-2.3l-1.4,0.3c0,0,2-2,3.4-4c1.3-2,1.6-2.6,1.6-2.6v0.9c0,0,1.9-3,3.5-3.6c1.6-0.7,4.7-1.3,4.7-1.3l-1.9-0.4
			c0,0,4.9-1.3,6.6-2.9c1.7-1.6,3.4-2.5,3.4-2.5l-1.2,2.1l6-5.4l4.7,1.7l4.7-1.7l6,5.4l-1.5-2.5c0,0,2,1.3,3.7,3
			c1.7,1.6,6.6,2.9,6.6,2.9l-1.9,0.4c0,0,3.1,0.6,4.7,1.3c1.6,0.7,3.5,3.6,3.5,3.6v-0.9c0,0,0.3,0.6,1.6,2.6c1.3,2,3.4,4,3.4,4
			l-1.4-0.3l0.9,1.1c6.6-2.8,7.1-7.4,10.5-17.1C138.9,95.6,138.6,89.5,138.6,89.5L138.6,89.5z M88,67.1c-0.4-1-1.4-1.6-1.4-1.6
			c1.1,3,0.8,4.9,0.8,4.9c-0.5-2-1.6-3.1-2.2-3.6c1.3,1.1,1.4,3.2,1.4,3.2l-2.4-1.6l0.8,1.6c0,0-0.7-0.9-2.6-1.9
			c-1.9-1-4.3-0.9-4.3-0.9l1.6,0.5c0,0,0,0-2,0c-2,0-4.7-0.9-4.7-0.9l0.9,0.7c0,0-0.1,0-2.8-0.7c-2.7-0.7-7.1,0.1-7.1,0.1
			s1.7,0.6,2.1,0.7c0.1,0,0.1,0,0.1,0c0,0,0,0-0.1,0c-0.5,0-2.8,0.1-4.5,0.9c-1.9,0.9-5.5,3.4-5.5,3.4l2.7-5.2l-1.9,2
			c0,0,0.6-3.4,2.4-4.2c1.8-0.8,5.3-1.4,5.3-1.4l-2.3-0.7c0,0,0.8-0.2,3.3-0.9c2.5-0.7,4.3-0.2,4.3-0.2l-0.7-0.6
			c0,0,0.2,0.1,2.5,0.5c2.3,0.4,6,0.5,6,0.5l-0.5,0.6c0,0,2.3-0.3,3.9-0.2c1.6,0.1,4.7,2.1,4.7,2.1l-0.6-1.2c0,0,0.2,0.1,1.3,1
			C87.3,64.8,87.7,66.2,88,67.1c0.1,0.3,0.2,0.6,0.2,0.9C88.2,68,88.1,67.6,88,67.1z M127.3,71.1c-1.4-0.9-3.6-1.3-4-1.3
			c0,0-0.1,0-0.1,0c0,0,0,0,0.1,0c0.4,0,2-0.5,2-0.5s-4-1.2-6.5-0.8c-2.5,0.4-2.7,0.4-2.7,0.4l0.9-0.6c0,0-2.6,0.7-4.4,0.5
			c-1.9-0.2-1.9-0.2-1.9-0.2l1.5-0.4c0,0-2.2-0.4-4.1,0.4c-1.8,0.9-2.6,1.7-2.6,1.7l0.9-1.5l-2.3,1.4c0,0,0.3-2.1,1.6-3.1
			c-0.6,0.4-1.7,1.4-2.4,3.3c0,0-0.1-1.9,1.3-4.8c0,0-0.9,0.5-1.4,1.5c-0.2,0.5-0.3,0.8-0.3,0.8c0-0.3,0.1-0.6,0.3-0.8
			c0.3-0.9,0.9-2.3,1.6-2.8c1.1-0.8,1.3-0.9,1.3-0.9l-0.7,1.1c0,0,3.1-1.7,4.5-1.7s3.6,0.6,3.6,0.6l-0.4-0.6c0,0,3.4,0.3,5.5,0.1
			c2.2-0.2,2.4-0.2,2.4-0.2l-0.7,0.6c0,0,1.7-0.2,3.9,0.7c2.2,0.9,2.9,1.2,2.9,1.2l-2.2,0.4c0,0,3.1,1,4.7,1.9
			c1.6,0.9,1.8,4.4,1.8,4.4l-1.5-2.2l1.9,5.5C132,75.1,128.9,72.2,127.3,71.1z"/>
	</g>
	<g>
		<path class="st0" d="M357.7,191.9H220.3V3.7h137.1v20H242.5v63.8h106.8v20H242.5v64.4h115.2V191.9z"/>
		<path class="st0" d="M494.7,14.1c12.6,9.4,20.6,21.9,23.7,37.7l-22.2,5.1c-2.1-11.4-7.5-20.5-16.3-27.3
			c-8.8-6.7-19.7-10.1-32.6-10.1c-12.7,0-23,3.1-30.9,9.4c-7.9,6.3-11.8,14.5-11.8,24.6c0,8.1,2.4,14.3,7.2,18.7
			c4.8,4.4,11.8,7.5,21.2,9.4l41,9.3c31.7,6.7,47.5,23,47.5,48.9c0,17-6.4,30.6-19.1,40.7c-12.7,10.1-29.7,15.2-50.9,15.2
			c-20.4,0-37.7-5-51.8-15c-14.1-10-22.3-23.7-24.6-41.2l23.3-4.8c2.1,13.1,8.1,23.3,18,30.5c9.9,7.2,22.3,10.8,37.1,10.8
			c14.2,0,25.4-3.2,33.6-9.7c8.1-6.5,12.2-14.9,12.2-25.4c0-8.6-2.4-15.1-7.2-19.4c-4.8-4.3-12.6-7.7-23.5-10.1l-42.4-9.3
			C396.1,95.3,381,79.2,381,54c0-16.1,6.1-29.1,18.4-39.1C411.7,5,427.9,0,447.9,0C466.4,0,482,4.7,494.7,14.1z"/>
		<path class="st0" d="M547.4,191.9V3.7h22.2v188.3H547.4z"/>
		<path class="st0" d="M787.7,88.5c0.2,2.4,0.3,5.6,0.3,9.6c0,27.7-8.9,50.9-26.6,69.6c-17.7,18.6-40.3,28-67.9,28
			c-27.5,0-50.8-9.5-69.7-28.4c-18.9-18.9-28.4-42.1-28.4-69.4c0-27.4,9.4-50.5,28.2-69.4C642.5,9.5,665.6,0,692.9,0
			c20.8,0,39.1,4.8,54.9,14.5c15.8,9.6,27.1,23,33.9,40l-20,7C755.2,48.2,746,38.1,734,31.2c-12-6.9-25.7-10.4-41-10.4
			c-21.2,0-39,7.4-53.4,22.3s-21.6,33.1-21.6,54.7c0,21.5,7.4,39.8,22.1,54.7c14.7,14.9,32.7,22.3,54.1,22.3
			c19.7,0,36.1-6.2,49.3-18.5c13.2-12.4,20.9-28.2,23.2-47.5h-83.2V88.5H787.7z"/>
		<path class="st0" d="M978.5,191.9h-19.1L836.3,42.4v149.5h-22.2V3.7h19.1l123.1,151.2V3.7h22.2V191.9z"/>
		<path class="st0" d="M1133.9,123.4c0,21.2-6.4,38.5-19.3,52c-12.8,13.5-29.6,20.2-50.4,20.2c-18.7,0-34.2-5.6-46.4-16.7
			c-12.2-11.1-19.6-25.8-22.2-44l21.1-4.8c1.7,13.7,6.7,24.6,15,32.9c8.3,8.2,19.2,12.4,32.5,12.4c14.1,0,25.5-4.9,34.3-14.6
			c8.8-9.7,13.2-22.2,13.2-37.4V3.7h22.2V123.4z"/>
	</g>
</g>
</svg>
