<?xml version="1.0" encoding="utf-8"?>
<!-- Generator: Adobe Illustrator 30.5.1, SVG Export Plug-In . SVG Version: 9.03 Build 0)  -->
<svg version="1.0" id="Ebene_1" xmlns="http://www.w3.org/2000/svg" xmlns:xlink="http://www.w3.org/1999/xlink" x="0px" y="0px"
	 viewBox="0 0 790.3 790.3" style="enable-background:new 0 0 790.3 790.3;" xml:space="preserve">
<style type="text/css">
	.st0{fill:#FFFFFF;}
</style>
<g>
	<path class="st0" d="M445.2,478.9l-0.2-0.2l-26.6-6.5c-3.4-1.7-5.9-3.1-5.9-3.1l1.8,2.1l-20.5-5l0,0.1c-0.1-0.1-0.1-0.1-0.1-0.1
		c-0.2-0.3-5.2,1.4-5.6,1.5c-2.2,0.6-4.3,1.7-6.6,1.6c-2.1,0-4.2-1.1-6.2-1.6c-0.4-0.1-5.4-1.8-5.6-1.5l-21.9,4.4l3.4-3.1
		c0,0-6.2,1.8-9.7,3.6l-23,7.7c0,0-11.2,6.5-12.2,7.4c-1,0.9-7.5,14.6-7.5,14.6l-1.5,8l11.5,13.2c0,0,13.2-6.5,16.7-10.7
		c3.5-4.2,3.5-4.2,3.5-4.2l-5,2.4l11.6-14c0,0,20.2,2.2,41.2,2c20.9,0.3,41.2-2,41.2-2l11.6,14l-5-2.4c0,0,0,0,3.5,4.2
		c3.5,4.2,16.7,10.7,16.7,10.7l10.9-15l2.8-11.1c-0.2-4-0.5-9.2-1.2-9.8C456.2,485.3,447,479.9,445.2,478.9z"/>
	<path class="st0" d="M737.3,189.7c-35.4-59.4-84.9-105.9-148.5-139.4C525.2,16.8,451.2,0,366.9,0H98.6H45.2H0v790.3h45.2h53.5
		h268.3c84.3,0,158.2-16.7,221.9-50.2c63.6-33.5,113.1-80,148.5-139.4c35.4-59.4,53.1-128,53.1-205.5
		C790.3,317.6,772.6,249.1,737.3,189.7z M567.3,385.9l3.4-10.4c0,0,22.4,23.8-11,51.3C559.7,426.7,579.2,405.9,567.3,385.9z
		 M582.6,403.7c0,0,15.9-61.3,3.1-64.4c-7.9-1.9-15.2,5.8-19.6,12.1c-0.7,24-5.6,64.6-10.1,112.2c14.1-2.9,20.7-29.2,20.7-29.2
		c0.4,29.9-17.6,43.6-22.3,46.7c-2,22.8-3.8,46.9-4.9,71.3c-3.9,86.8-29.5,107.4-29.5,107.4c5.2-16.3,3.5-38.2,3.5-38.2
		c-6.5,55.9-53.4,88.1-53.4,88.1c12.2-10.7,13.5-28.8,13.5-28.8s-36.9,43-112.9,46.4c-76,3.4-104.8-58.4-104.8-58.4
		c4.1,19.2,10.4,26.9,10.4,26.9c-38.2-26.6-57.6-92.2-57.6-92.2c0,15.8,2.2,28.9,2.2,28.9c-23.5-43.6-29.9-111.2-33.8-169
		c-7.8-3.8-23.5-14.7-28.7-41.3c0,0,12.1,23.5,27.7,26.2c-0.6-10-1.2-19.5-1.9-28.5c-3-42,0.5-71.7,3.2-86.9
		c-5.9-2.8-16.5-11.1-24.2-14.6c-10-4.5-8.7,10.6-6.8,30.2c2,19.6-1.4,59.7-1.4,59.7s-4.4-25.2-4.7-52c-0.3-26.7-8.7-47,6-52.2
		c9.2-3.3,21.3,3.7,29,9.5c-1.1-9.8-1.1-27.5-1.1-27.5l0,0c-0.1-2.7-0.2-5.5-0.1-8.3c0.9-21.5,4.6-47.2,13.1-85
		c8.5-37.9,27.2-56.8,44.2-71.3c17.1-14.5,53.4-47.2,117.6-56.4c64.2-9.2,100.5,16.5,135.5,42.4c35,25.9,46.5,49.4,46.5,49.4
		c38.2,53.6,33.3,153.8,32.1,170.6c5.4-3.8,12.9-7,18.8-1.9C601.8,333.5,602.1,348.5,582.6,403.7z M182.6,409.6
		c-30.6-28.4-3.9-53.7-3.9-53.7l3.6,12.4C168,382.4,182.6,409.6,182.6,409.6z"/>
	<path class="st0" d="M344,269.7c-0.5-0.4-0.9-0.6-0.9-0.6C343.4,269.3,343.7,269.5,344,269.7z"/>
	<path class="st0" d="M428.7,270.3c0,0-0.3,0.2-0.9,0.5C428.1,270.7,428.4,270.5,428.7,270.3z"/>
	<path class="st0" d="M560.1,361.7c-1.5-8.7-7.1-43.3-7.5-74.5c-0.4-36.1-11.2-42.6-11.2-42.6c2.6-43.8,8.5-79.5-56.3-132.1
		c-42.1-34.2-96.8-38.7-145.3-31.2c-20,0.8-48.4,10.5-70.6,23.3c-6.3,3.6-11.9,8.3-16.7,13.8c-11.5,13.2-17.6,30.2-21.9,47
		c-4.2,16.7-7.6,33.7-11.8,50.4c-3.9,15.5-7.4,31-9.5,46.9c-2.1,16.2-3.6,32.4-8.2,48.1c-0.2,0.6-0.4,1.1-0.5,1.7l0,0c0,0,0,0,0,0.1
		c-1.4,4.5-2.9,9-4.5,13.5c-1.3,5.5-2.7,13-3.7,22.6c1.9,21.8,4.7,54.3,7.3,89.4c4.6,62.5,43.3,75.1,43.3,75.1
		c4.3-3,8.2-7.3,11.7-12.3l7.5-9.4l-5.5,1.1c0,0,8.3-8,13.6-16.1c5.3-8,6.7-10.6,6.7-10.6v3.7c0,0,7.8-11.9,14.2-14.7
		c6.4-2.8,18.8-5.3,18.8-5.3l-7.6-1.6c0,0,19.8-5.1,26.7-11.7c6.9-6.7,13.8-10.2,13.8-10.2l-4.8,8.4l24.3-21.7l19.1,7l19.1-7
		l24.3,21.7l-6.1-10.2c0,0,8.2,5.3,15.1,11.9c6.9,6.7,26.7,11.7,26.7,11.7l-7.6,1.6c0,0,12.4,2.5,18.8,5.3
		c6.4,2.8,14.2,14.7,14.2,14.7v-3.7c0,0,1.4,2.5,6.7,10.6c5.3,8,13.6,16.1,13.6,16.1l-5.5-1.1l3.6,4.4c26.7-11.3,28.8-30,42.4-69
		C561.1,386.1,560.1,361.7,560.1,361.7L560.1,361.7z M355.5,271.3c-1.7-4-5.5-6.5-5.5-6.5c4.6,12.1,3.4,19.8,3.4,19.8
		c-2-8.2-6.5-12.6-8.8-14.4c5.3,4.3,5.7,13,5.7,13l-9.5-6.5l3.2,6.3c0,0-2.8-3.6-10.4-7.9c-7.6-4.2-17.4-3.5-17.4-3.5l6.5,2.1
		c0,0,0,0-8.3,0c-8.3,0-19.1-3.8-19.1-3.8l3.8,2.9c0,0-0.6-0.1-11.4-2.8c-10.8-2.7-28.6,0.6-28.6,0.6s6.7,2.5,8.4,2.8
		c0.3,0,0.4,0,0.3,0c-0.1,0-0.2,0-0.3,0c-1.9,0-11.5,0.5-18.2,3.7c-7.7,3.6-22.2,13.9-22.2,13.9l10.8-21.2l-7.6,8.3
		c0,0,2.2-13.7,9.7-16.8c7.4-3.1,21.5-5.6,21.5-5.6l-9.3-2.7c0,0,3.2-0.8,13.3-3.5c10.1-2.7,17.4-1,17.4-1L280,246
		c0,0,1,0.3,10.2,1.8c9.3,1.5,24.1,2,24.1,2l-2.1,2.4c0,0,9.4-1.3,15.8-0.7c6.5,0.6,18.9,8.6,18.9,8.6l-2.5-4.9c0,0,0.7,0.4,5.2,4.2
		C352.6,261.8,354.5,267.6,355.5,271.3c0.5,1.1,0.8,2.2,0.8,3.5C356.3,274.8,356,273.3,355.5,271.3z M514.3,287.4
		c-5.8-3.8-14.6-5.2-16.4-5.4c-0.1,0-0.3,0-0.3,0c-0.1,0,0,0,0.3,0c1.6-0.1,8-1.9,8-1.9s-16.1-4.9-26.3-3.3
		c-10.2,1.6-10.8,1.7-10.8,1.7l3.8-2.6c0,0-10.3,2.7-18,1.9c-7.6-0.8-7.6-0.8-7.6-0.8l6.2-1.5c0,0-9-1.7-16.4,1.8
		c-7.4,3.4-10.4,6.8-10.4,6.8l3.6-6l-9.5,5.5c0,0,1.3-8.6,6.6-12.4c-2.3,1.6-6.9,5.5-9.6,13.5c0,0-0.4-7.8,5.2-19.3
		c0,0-3.8,2.1-5.8,5.9c-0.7,2-1.1,3.4-1.1,3.4c0.2-1.2,0.6-2.4,1.1-3.4c1.3-3.6,3.7-9.2,6.6-11.3c4.5-3.3,5.2-3.7,5.2-3.7l-2.8,4.6
		c0,0,12.3-6.7,18.3-6.7c6,0.1,14.5,2.2,14.5,2.2l-1.7-2.6c0,0,13.7,1,22.4,0.4c8.7-0.6,9.6-0.8,9.6-0.8l-3,2.2c0,0,6.9-1,15.9,2.7
		c9,3.6,11.9,4.8,11.9,4.8l-8.8,1.8c0,0,12.7,3.9,19.2,7.7c6.5,3.8,7.1,17.7,7.1,17.7l-6.1-9l7.7,22.1
		C533.2,303.4,521,291.8,514.3,287.4z"/>
</g>
</svg>
